<svg width="16" height="15" viewBox="0 0 16 15" fill="none" xmlns="http://www.w3.org/2000/svg">
<path d="M8 0.133926C3.86417 0.133926 0.5 3.43884 0.5 7.5C0.5 11.5612 3.86417 14.8661 8 14.8661C12.1358 14.8661 15.5 11.5612 15.5 7.5C15.5 3.43884 12.1358 0.133926 8 0.133926ZM8 13.2292C4.78417 13.2292 2.16667 10.6592 2.16667 7.5C2.16667 4.34077 4.78417 1.77083 8 1.77083C11.2158 1.77083 13.8333 4.34077 13.8333 7.5C13.8333 10.6592 11.2158 13.2292 8 13.2292ZM8.58917 7.5L10.7942 5.33437C10.8719 5.25742 10.9155 5.15343 10.9155 5.04505C10.9155 4.93667 10.8719 4.83268 10.7942 4.75573C10.7158 4.67941 10.6099 4.63658 10.4996 4.63658C10.3892 4.63658 10.2834 4.67941 10.205 4.75573L8 6.92135L5.795 4.75491C5.71642 4.68036 5.61116 4.63912 5.50192 4.64005C5.39267 4.64098 5.28816 4.68402 5.21091 4.75989C5.13366 4.83577 5.08984 4.93841 5.08889 5.0457C5.08794 5.153 5.12993 5.25637 5.20583 5.33355L7.41083 7.5L5.20583 9.66562C5.12759 9.74236 5.0836 9.84647 5.08352 9.95506C5.08344 10.0637 5.12729 10.1678 5.20542 10.2447C5.28354 10.3215 5.38955 10.3647 5.50012 10.3648C5.61069 10.3649 5.71676 10.3218 5.795 10.2451L8 8.07864L10.205 10.2443C10.2434 10.2834 10.2893 10.3146 10.3401 10.3362C10.3909 10.3577 10.4456 10.369 10.5009 10.3696C10.5562 10.3701 10.6111 10.3598 10.6623 10.3393C10.7136 10.3188 10.7601 10.2885 10.7993 10.2501C10.8385 10.2118 10.8695 10.1661 10.8905 10.1159C10.9115 10.0656 10.9222 10.0117 10.9218 9.95741C10.9214 9.90307 10.9099 9.84936 10.8882 9.7994C10.8664 9.74945 10.8347 9.70425 10.795 9.66644L8.58917 7.5Z" fill="white"/>
</svg>
