<svg width="16" height="16" viewBox="0 0 16 16" fill="white" xmlns="http://www.w3.org/2000/svg">
<path d="M10.9826 3.60534L12.3946 5.01667M11.8906 2.36201L8.07265 6.18001C7.87537 6.37701 7.74083 6.628 7.68598 6.90134L7.33331 8.66667L9.09865 8.31334C9.37198 8.25867 9.62265 8.12467 9.81998 7.92734L13.638 4.10934C13.7527 3.99461 13.8437 3.8584 13.9058 3.7085C13.9679 3.55859 13.9999 3.39793 13.9999 3.23567C13.9999 3.07342 13.9679 2.91275 13.9058 2.76285C13.8437 2.61294 13.7527 2.47674 13.638 2.36201C13.5232 2.24728 13.387 2.15627 13.2371 2.09417C13.0872 2.03208 12.9266 2.00012 12.7643 2.00012C12.6021 2.00012 12.4414 2.03208 12.2915 2.09417C12.1416 2.15627 12.0054 2.24728 11.8906 2.36201V2.36201Z" stroke="#7F2AFF" stroke-width="2" stroke-linecap="round" stroke-linejoin="round"/>
<path d="M12.6667 10V12C12.6667 12.3536 12.5262 12.6928 12.2761 12.9428C12.0261 13.1929 11.6869 13.3333 11.3333 13.3333H3.99999C3.64637 13.3333 3.30723 13.1929 3.05718 12.9428C2.80713 12.6928 2.66666 12.3536 2.66666 12V4.66668C2.66666 4.31305 2.80713 3.97392 3.05718 3.72387C3.30723 3.47382 3.64637 3.33334 3.99999 3.33334H5.99999" stroke="#7F2AFF" stroke-width="2" stroke-linecap="round" stroke-linejoin="round"/>
</svg>
