<svg width="14" height="14" viewBox="0 0 14 14" fill="none" xmlns="http://www.w3.org/2000/svg">
<path d="M6.99998 6.99999C8.61081 6.99999 9.91665 5.69415 9.91665 4.08332C9.91665 2.47249 8.61081 1.16666 6.99998 1.16666C5.38915 1.16666 4.08331 2.47249 4.08331 4.08332C4.08331 5.69415 5.38915 6.99999 6.99998 6.99999Z" stroke="#F8F8F8" stroke-width="1.33333"/>
<path d="M9.91666 12.8333H3.07183C2.90638 12.8333 2.74282 12.7982 2.592 12.7302C2.44118 12.6622 2.30655 12.5629 2.19705 12.4389C2.08754 12.3148 2.00566 12.169 1.95685 12.0109C1.90803 11.8528 1.8934 11.6861 1.91391 11.522L2.14141 9.69965C2.19432 9.27628 2.40007 8.88682 2.71998 8.60451C3.03989 8.3222 3.45191 8.16648 3.87858 8.16665H4.08333M11.0833 7.58331V11.0833M9.33333 9.33331H12.8333" stroke="#F8F8F8" stroke-width="1.33333" stroke-linecap="round" stroke-linejoin="round"/>
</svg>
